<svg width="834" height="469" viewBox="0 0 834 469" fill="none" xmlns="http://www.w3.org/2000/svg">
<path d="M417 182C467.258 182 508 141.258 508 91C508 40.7421 467.258 0 417 0C366.742 0 326 40.7421 326 91C326 141.258 366.742 182 417 182Z" fill="#2DA62D"/>
<path d="M561.925 180.611C604.59 173.08 637 135.825 637 90.9999C637 46.1748 604.59 8.91938 561.925 1.38868C553.223 -0.147316 546 7.16331 546 15.9999V166C546 174.837 553.223 182.147 561.925 180.611Z" fill="#2DA62D"/>
<path d="M272.075 180.611C229.41 173.08 197 135.825 197 90.9999C197 46.1748 229.41 8.91938 272.075 1.38868C280.777 -0.147316 288 7.16331 288 15.9999V166C288 174.837 280.777 182.147 272.075 180.611Z" fill="#2DA62D"/>
<path d="M68.3992 405.6C57.3992 405.6 47.6992 403.7 39.2992 399.9C31.0992 395.9 24.6992 390.5 20.0992 383.7C15.4992 376.7 13.1992 368.5 13.1992 359.1C13.1992 350.3 15.0992 342.4 18.8992 335.4C22.8992 328.4 28.9992 322.5 37.1992 317.7C45.3992 312.9 55.6992 309.5 68.0992 307.5L124.499 298.2V324.9L74.6992 333.6C65.6992 335.2 59.0992 338.1 54.8992 342.3C50.6992 346.3 48.5992 351.5 48.5992 357.9C48.5992 364.1 50.8992 369.2 55.4992 373.2C60.2992 377 66.3992 378.9 73.7992 378.9C82.9992 378.9 90.9992 376.9 97.7992 372.9C104.799 368.9 110.199 363.6 113.999 357C117.799 350.2 119.699 342.7 119.699 334.5V292.8C119.699 284.8 116.699 278.3 110.699 273.3C104.899 268.1 97.0992 265.5 87.2992 265.5C78.2992 265.5 70.3992 267.9 63.5992 272.7C56.9992 277.3 52.0992 283.3 48.8992 290.7L20.6992 276.6C23.6992 268.6 28.5992 261.6 35.3992 255.6C42.1992 249.4 50.0992 244.6 59.0992 241.2C68.2992 237.8 77.9992 236.1 88.1992 236.1C100.999 236.1 112.299 238.5 122.099 243.3C132.099 248.1 139.799 254.8 145.199 263.4C150.799 271.8 153.599 281.6 153.599 292.8V402H121.199V372.6L128.099 373.5C124.299 380.1 119.399 385.8 113.399 390.6C107.599 395.4 100.899 399.1 93.2992 401.7C85.8992 404.3 77.5992 405.6 68.3992 405.6ZM233.137 405.6C220.937 405.6 210.237 402.9 201.037 397.5C191.837 391.9 184.637 384.2 179.437 374.4C174.437 364.4 171.937 352.9 171.937 339.9V239.7H205.837V336.9C205.837 344.3 207.337 350.8 210.337 356.4C213.337 362 217.537 366.4 222.937 369.6C228.337 372.6 234.537 374.1 241.537 374.1C248.737 374.1 255.037 372.5 260.437 369.3C265.837 366.1 270.037 361.6 273.037 355.8C276.237 350 277.837 343.2 277.837 335.4V239.7H311.437V402H279.337V370.2L282.937 374.4C279.137 384.4 272.837 392.1 264.037 397.5C255.237 402.9 244.937 405.6 233.137 405.6ZM411.318 468C399.518 468 388.618 466.1 378.618 462.3C368.618 458.5 360.018 453.2 352.818 446.4C345.618 439.8 340.218 432 336.618 423L367.818 410.1C370.618 417.7 375.718 424 383.118 429C390.718 434 400.018 436.5 411.018 436.5C419.618 436.5 427.318 434.8 434.118 431.4C440.918 428.2 446.318 423.4 450.318 417C454.318 410.8 456.318 403.3 456.318 394.5V357.9L462.318 364.8C456.718 375.2 448.918 383.1 438.918 388.5C429.118 393.9 418.018 396.6 405.618 396.6C390.618 396.6 377.118 393.1 365.118 386.1C353.118 379.1 343.618 369.5 336.618 357.3C329.818 345.1 326.418 331.4 326.418 316.2C326.418 300.8 329.818 287.1 336.618 275.1C343.618 263.1 353.018 253.6 364.818 246.6C376.618 239.6 390.118 236.1 405.318 236.1C417.718 236.1 428.718 238.8 438.318 244.2C448.118 249.4 456.118 257 462.318 267L457.818 275.4V239.7H489.918V394.5C489.918 408.5 486.518 421 479.718 432C473.118 443.2 463.918 452 452.118 458.4C440.318 464.8 426.718 468 411.318 468ZM409.518 365.1C418.518 365.1 426.518 363 433.518 358.8C440.518 354.4 446.018 348.6 450.018 341.4C454.218 334 456.318 325.7 456.318 316.5C456.318 307.3 454.218 299 450.018 291.6C445.818 284.2 440.218 278.4 433.218 274.2C426.218 269.8 418.318 267.6 409.518 267.6C400.318 267.6 392.118 269.8 384.918 274.2C377.718 278.4 372.018 284.2 367.818 291.6C363.818 298.8 361.818 307.1 361.818 316.5C361.818 325.5 363.818 333.7 367.818 341.1C372.018 348.5 377.718 354.4 384.918 358.8C392.118 363 400.318 365.1 409.518 365.1ZM587.8 405.6C571.6 405.6 557.2 401.9 544.6 394.5C532.2 386.9 522.5 376.7 515.5 363.9C508.5 350.9 505 336.4 505 320.4C505 304 508.5 289.5 515.5 276.9C522.7 264.3 532.3 254.4 544.3 247.2C556.3 239.8 569.9 236.1 585.1 236.1C597.3 236.1 608.2 238.2 617.8 242.4C627.4 246.6 635.5 252.4 642.1 259.8C648.7 267 653.7 275.3 657.1 284.7C660.7 294.1 662.5 304.1 662.5 314.7C662.5 317.3 662.4 320 662.2 322.8C662 325.6 661.6 328.2 661 330.6H531.7V303.6H641.8L625.6 315.9C627.6 306.1 626.9 297.4 623.5 289.8C620.3 282 615.3 275.9 608.5 271.5C601.9 266.9 594.1 264.6 585.1 264.6C576.1 264.6 568.1 266.9 561.1 271.5C554.1 275.9 548.7 282.3 544.9 290.7C541.1 298.9 539.6 308.9 540.4 320.7C539.4 331.7 540.9 341.3 544.9 349.5C549.1 357.7 554.9 364.1 562.3 368.7C569.9 373.3 578.5 375.6 588.1 375.6C597.9 375.6 606.2 373.4 613 369C620 364.6 625.5 358.9 629.5 351.9L657.1 365.4C653.9 373 648.9 379.9 642.1 386.1C635.5 392.1 627.5 396.9 618.1 400.5C608.9 403.9 598.8 405.6 587.8 405.6ZM677.584 402V239.7H709.984V271.5L706.084 267.3C710.084 257.1 716.484 249.4 725.284 244.2C734.084 238.8 744.284 236.1 755.884 236.1C767.884 236.1 778.484 238.7 787.684 243.9C796.884 249.1 804.084 256.3 809.284 265.5C814.484 274.7 817.084 285.3 817.084 297.3V402H783.484V306.3C783.484 298.1 781.984 291.2 778.984 285.6C775.984 279.8 771.684 275.4 766.084 272.4C760.684 269.2 754.484 267.6 747.484 267.6C740.484 267.6 734.184 269.2 728.584 272.4C723.184 275.4 718.984 279.8 715.984 285.6C712.984 291.4 711.484 298.3 711.484 306.3V402H677.584Z" fill="#2DA62D"/>
</svg>
