<svg width="440" height="186" viewBox="197 -4 440 186" fill="none" xmlns="http://www.w3.org/2000/svg">
  <path d="M417 182C467.258 182 508 141.258 508 91C508 40.7421 467.258 0 417 0C366.742 0 326 40.7421 326 91C326 141.258 366.742 182 417 182Z" fill="#2DA62D"/>
  <path d="M561.925 180.611C604.59 173.08 637 135.825 637 90.9999C637 46.1748 604.59 8.91938 561.925 1.38868C553.223 -0.147316 546 7.16331 546 15.9999V166C546 174.837 553.223 182.147 561.925 180.611Z" fill="#2DA62D"/>
  <path d="M272.075 180.611C229.41 173.08 197 135.825 197 90.9999C197 46.1748 229.41 8.91938 272.075 1.38868C280.777 -0.147316 288 7.16331 288 15.9999V166C288 174.837 280.777 182.147 272.075 180.611Z" fill="#2DA62D"/>
</svg>
