<svg width="804" height="232" viewBox="0 0 804 232" fill="none" xmlns="http://www.w3.org/2000/svg">
<path d="M55.2 169.5C44.2 169.5 34.5 167.6 26.1 163.8C17.9 159.8 11.5 154.4 6.9 147.6C2.3 140.6 0 132.4 0 123C0 114.2 1.9 106.3 5.7 99.3C9.7 92.3 15.8 86.4 24 81.6C32.2 76.8 42.5 73.4 54.9 71.4L111.3 62.1V88.8L61.5 97.5C52.5 99.1 45.9 102 41.7 106.2C37.5 110.2 35.4 115.4 35.4 121.8C35.4 128 37.7 133.1 42.3 137.1C47.1 140.9 53.2 142.8 60.6 142.8C69.8 142.8 77.8 140.8 84.6 136.8C91.5998 132.8 96.9998 127.5 100.8 120.9C104.6 114.1 106.5 106.6 106.5 98.4V56.7C106.5 48.7 103.5 42.2 97.4998 37.2C91.6998 32 83.9 29.4 74.1 29.4C65.1 29.4 57.2 31.8 50.4 36.6C43.8 41.2 38.9 47.2 35.7 54.6L7.5 40.5C10.5 32.5 15.4 25.5 22.2 19.5C29 13.3 36.9 8.49999 45.9 5.09999C55.1 1.69999 64.8 0 75 0C87.7998 0 99.0998 2.4 108.9 7.2C118.9 12 126.6 18.7 132 27.3C137.6 35.7 140.4 45.5 140.4 56.7V165.9H108V136.5L114.9 137.4C111.1 144 106.2 149.7 100.2 154.5C94.3998 159.3 87.6998 163 80.1 165.6C72.7 168.2 64.4 169.5 55.2 169.5ZM219.938 169.5C207.738 169.5 197.038 166.8 187.838 161.4C178.638 155.8 171.438 148.1 166.238 138.3C161.238 128.3 158.738 116.8 158.738 103.8V3.59999H192.638V100.8C192.638 108.2 194.138 114.7 197.138 120.3C200.138 125.9 204.338 130.3 209.738 133.5C215.138 136.5 221.338 138 228.338 138C235.538 138 241.838 136.4 247.238 133.2C252.638 130 256.838 125.5 259.838 119.7C263.038 113.9 264.638 107.1 264.638 99.3V3.59999H298.238V165.9H266.138V134.1L269.738 138.3C265.938 148.3 259.638 156 250.838 161.4C242.038 166.8 231.738 169.5 219.938 169.5ZM398.119 231.9C386.319 231.9 375.419 230 365.419 226.2C355.419 222.4 346.819 217.1 339.619 210.3C332.419 203.7 327.019 195.9 323.419 186.9L354.619 174C357.419 181.6 362.519 187.9 369.919 192.9C377.519 197.9 386.819 200.4 397.819 200.4C406.419 200.4 414.119 198.7 420.919 195.3C427.719 192.1 433.119 187.3 437.119 180.9C441.119 174.7 443.119 167.2 443.119 158.4V121.8L449.119 128.7C443.519 139.1 435.719 147 425.719 152.4C415.919 157.8 404.819 160.5 392.419 160.5C377.419 160.5 363.919 157 351.919 150C339.919 143 330.419 133.4 323.419 121.2C316.619 109 313.219 95.3 313.219 80.1C313.219 64.7 316.619 51 323.419 39C330.419 27 339.819 17.5 351.619 10.5C363.419 3.5 376.919 0 392.119 0C404.519 0 415.519 2.69999 425.119 8.09999C434.919 13.3 442.919 20.9 449.119 30.9L444.619 39.3V3.59999H476.719V158.4C476.719 172.4 473.319 184.9 466.519 195.9C459.919 207.1 450.719 215.9 438.919 222.3C427.119 228.7 413.519 231.9 398.119 231.9ZM396.319 129C405.319 129 413.319 126.9 420.319 122.7C427.319 118.3 432.819 112.5 436.819 105.3C441.019 97.9 443.119 89.6 443.119 80.4C443.119 71.2 441.019 62.9 436.819 55.5C432.619 48.1 427.019 42.3 420.019 38.1C413.019 33.7 405.119 31.5 396.319 31.5C387.119 31.5 378.919 33.7 371.719 38.1C364.519 42.3 358.819 48.1 354.619 55.5C350.619 62.7 348.619 71 348.619 80.4C348.619 89.4 350.619 97.6 354.619 105C358.819 112.4 364.519 118.3 371.719 122.7C378.919 126.9 387.119 129 396.319 129ZM574.601 169.5C558.401 169.5 544.001 165.8 531.401 158.4C519.001 150.8 509.301 140.6 502.301 127.8C495.301 114.8 491.801 100.3 491.801 84.3C491.801 67.9 495.301 53.4 502.301 40.8C509.501 28.2 519.101 18.3 531.101 11.1C543.101 3.69999 556.701 0 571.901 0C584.101 0 595.001 2.09999 604.601 6.29999C614.201 10.5 622.301 16.3 628.901 23.7C635.501 30.9 640.501 39.2 643.901 48.6C647.501 58 649.301 68 649.301 78.6C649.301 81.2 649.201 83.9 649.001 86.7C648.801 89.5 648.401 92.1 647.801 94.5H518.501V67.5H628.601L612.401 79.8C614.401 70 613.701 61.3 610.301 53.7C607.101 45.9 602.101 39.8 595.301 35.4C588.701 30.8 580.901 28.5 571.901 28.5C562.901 28.5 554.901 30.8 547.901 35.4C540.901 39.8 535.501 46.2 531.701 54.6C527.901 62.8 526.401 72.8 527.201 84.6C526.201 95.6 527.701 105.2 531.701 113.4C535.901 121.6 541.701 128 549.101 132.6C556.701 137.2 565.301 139.5 574.901 139.5C584.701 139.5 593.001 137.3 599.801 132.9C606.801 128.5 612.301 122.8 616.301 115.8L643.901 129.3C640.701 136.9 635.701 143.8 628.901 150C622.301 156 614.301 160.8 604.901 164.4C595.701 167.8 585.601 169.5 574.601 169.5ZM664.385 165.9V3.59999H696.785V35.4L692.885 31.2C696.885 21 703.285 13.3 712.085 8.09999C720.885 2.69999 731.085 0 742.685 0C754.685 0 765.285 2.59999 774.485 7.79999C783.685 13 790.885 20.2 796.085 29.4C801.285 38.6 803.885 49.2 803.885 61.2V165.9H770.285V70.2C770.285 62 768.785 55.1 765.785 49.5C762.785 43.7 758.485 39.3 752.885 36.3C747.485 33.1 741.285 31.5 734.285 31.5C727.285 31.5 720.985 33.1 715.385 36.3C709.985 39.3 705.785 43.7 702.785 49.5C699.785 55.3 698.285 62.2 698.285 70.2V165.9H664.385Z" fill="#7BF1A8"/>
</svg>
