<svg width="699" height="289" viewBox="0 0 699 289" fill="none" xmlns="http://www.w3.org/2000/svg">
<path d="M349.34 289C429.145 289 493.84 224.305 493.84 144.5C493.84 64.6949 429.145 0 349.34 0C269.535 0 204.84 64.6949 204.84 144.5C204.84 224.305 269.535 289 349.34 289Z" fill="#7BF1A8"/>
<path d="M579.467 286.794C647.215 274.835 698.68 215.678 698.68 144.499C698.68 73.321 647.215 14.1627 579.467 2.20456C565.649 -0.234466 554.18 11.3742 554.18 25.4059V263.593C554.18 277.625 565.649 289.233 579.467 286.794Z" fill="#7BF1A8"/>
<path d="M119.213 286.794C51.4642 274.835 0 215.678 0 144.499C0 73.321 51.4642 14.1627 119.213 2.20456C133.031 -0.234466 144.5 11.3742 144.5 25.4059V263.593C144.5 277.625 133.031 289.233 119.213 286.794Z" fill="#7BF1A8"/>
</svg>
